<svg width="209" height="122" fill="none" xmlns="http://www.w3.org/2000/svg"><path d="M37.899 58.49c1.045-5.089-.836-8.714-4.25-11.12-3.135-2.09-7.071-2.404-11.216-.313L5.086 54.865C.73 56.817-1.15 61.906.73 66.194c1.986 4.357 6.967 6.24 11.321 4.357l2.3-1.046-3.728 20.287c-1.045 6.135 2.926 11.119 8.325 12.165 5.713 1.046 11.321-2.719 12.262-8.435l6.688-35.032z" fill="url(#paint0_linear_1_283)"/><path d="M195.694 45.837c-9.545-1.394-19.193 4.183-22.886 12.096l.627-3.451c1.568-6.972-1.358-8.82-6.339-8.82h-6.445c-6.13 0-7.489 3.347-8.22 7.181l-7.489 41.585c-.627 2.823-.209 7.703 5.294 7.703h8.918c5.294 0 6.339-4.148 7.071-8.121l3.622-19.973c.836-4.567 1.568-6.763 3.135-8.436 2.404-2.719 7.176-3.939 10.52-1.255 1.986 1.673 2.717 4.462 2.195 8.436l-3.623 21.611c-.801 4.776 1.254 7.704 5.19 7.704h8.917c5.086 0 6.131-3.94 6.863-8.122l5.225-27.084c2.368-9.725-1.045-19.346-12.575-21.054z" fill="url(#paint1_linear_1_283)"/><path d="M138.393 40.225c5.675 0 10.276-4.557 10.276-10.178s-4.601-10.178-10.276-10.178-10.276 4.557-10.276 10.178 4.601 10.178 10.276 10.178z" fill="url(#paint2_linear_1_283)"/><path d="M139.02 94.01c-.732 4.357-1.986 8.121-7.071 8.121h-9.022c-4.354 0-5.922-3.241-5.086-7.494l7.455-41.794c.731-4.461 2.717-7.18 8.22-7.18h6.862c5.818 0 7.281 2.823 6.027 8.819L139.02 94.01z" fill="url(#paint3_linear_1_283)"/><path d="M39.745 45.628c2.299 2.719 4.981 6.03 3.623 14.152l-3.519 19.032.627 15.302c.105 5.508 2.822 7.913 7.385 7.913h11.634c3.623 0 5.19-2.824 6.654-6.344l8.812-21.716.94 20.775c.105 4.566 2.404 7.389 6.654 7.389h13.202c3.727 0 5.294-2.3 6.966-6.344l16.929-41.584c1.881-4.253.732-8.505-3.831-8.505h-8.43c-3.135 0-5.295 1.045-6.549 4.043l-11.46 27.851-1.045-24.853c-.209-5.298-2.717-7.076-5.712-7.076H74.02c-3.449 0-5.4 1.36-6.444 3.939L56.15 77.697 55.106 52.11c-.104-4.775-1.776-6.448-5.608-6.448h-9.753v-.035z" fill="url(#paint4_linear_1_283)"/><defs><linearGradient id="paint0_linear_1_283" x1="19.1" y1="109.916" x2="19.1" y2="44.318" gradientUnits="userSpaceOnUse"><stop stop-color="#0167CA"/><stop offset="1" stop-color="#38A8FA"/></linearGradient><linearGradient id="paint1_linear_1_283" x1="176.876" y1="103.605" x2="176.876" y2="44.232" gradientUnits="userSpaceOnUse"><stop stop-color="#C8C7C7"/><stop offset=".076" stop-color="#D6D5D5"/><stop offset=".216" stop-color="#E8E8E8"/><stop offset=".38" stop-color="#F5F5F5"/><stop offset=".59" stop-color="#FDFDFD"/><stop offset="1" stop-color="#fff"/></linearGradient><linearGradient id="paint2_linear_1_283" x1="138.389" y1="45.474" x2="138.389" y2="16.321" gradientUnits="userSpaceOnUse"><stop stop-color="#0167CA"/><stop offset="1" stop-color="#38A8FA"/></linearGradient><linearGradient id="paint3_linear_1_283" x1="132.207" y1="103.708" x2="132.207" y2="44.357" gradientUnits="userSpaceOnUse"><stop stop-color="#C8C7C7"/><stop offset=".076" stop-color="#D6D5D5"/><stop offset=".216" stop-color="#E8E8E8"/><stop offset=".38" stop-color="#F5F5F5"/><stop offset=".59" stop-color="#FDFDFD"/><stop offset="1" stop-color="#fff"/></linearGradient><linearGradient id="paint4_linear_1_283" x1="80.141" y1="103.602" x2="80.141" y2="44.357" gradientUnits="userSpaceOnUse"><stop stop-color="#C8C7C7"/><stop offset=".076" stop-color="#D6D5D5"/><stop offset=".216" stop-color="#E8E8E8"/><stop offset=".38" stop-color="#F5F5F5"/><stop offset=".59" stop-color="#FDFDFD"/><stop offset="1" stop-color="#fff"/></linearGradient></defs></svg>